<svg xmlns="http://www.w3.org/2000/svg" xmlns:svg="http://www.w3.org/2000/svg" id="svg2" width="40" height="40" x="0" y="0" enable-background="new 0 0 30 30" version="1.1" viewBox="0 0 40 40" xml:space="preserve"><metadata id="metadata19"/><rect style="opacity:.75;fill:#000;fill-opacity:1;stroke:none" id="rect3780" width="0" height="0" x="0" y="10"/><g id="g2986" transform="matrix(1.1437763,0,0,1.1437763,-0.60137754,-1.9570653)"><path id="rect3000" d="m 18.03125,10 -10.8125,10.8125 0,1.1875 0,7.8125 C 7.21875,30.472956 7.777044,31 8.4375,31 l 6.4375,0 0,-0.34375 0,-5.65625 0,-1.15625 C 14.875,23.647881 15.022881,23.5 15.21875,23.5 l 5.5625,0 c 0.195869,0 0.34375,0.147881 0.34375,0.34375 l 0,1.15625 0,5.65625 0,0.34375 6.5,0 c 0.660456,0 1.1875,-0.527044 1.1875,-1.1875 l 0,-7.8125 0,-1.1875 L 18.03125,10 z" style="opacity:.5;fill:#fff;fill-opacity:1;stroke:none"/><rect id="rect3759" width="3.6" height="7.425" x="7.24" y="9.689" style="opacity:.75;fill:#fff;fill-opacity:1;stroke:none"/><path id="path3779" d="m 2.9273444,21.683594 1.5375006,1.575 13.575,-13.5698112 13.481249,13.6073112 1.575,-1.650001 L 18.039845,6.7023437 z" style="fill:#fff;fill-opacity:1;stroke:#fff;stroke-width:.44999999;stroke-linecap:round;stroke-linejoin:round;stroke-miterlimit:4;stroke-opacity:1;stroke-dasharray:none"/></g></svg>