<svg xmlns="http://www.w3.org/2000/svg" xmlns:svg="http://www.w3.org/2000/svg" id="svg2" width="40" height="40" x="0" y="0" enable-background="new 0 0 30 30" version="1.1" viewBox="0 0 40 40" xml:space="preserve"><metadata id="metadata19"/><rect style="opacity:.75;fill:#000;fill-opacity:1;stroke:none" id="rect3780" width="0" height="0" x="0" y="10"/><g id="g3756" transform="matrix(1.1320755,0,0,1.1320755,-0.37735901,-0.37736313)"><g id="g3773" transform="matrix(0.72603715,0,0,0.72603715,3.9358642,-730.9886)"><path style="opacity:.5;fill:#fff;fill-opacity:1;stroke:none" id="path3766" d="m 17,1013.3622 c -8.836556,0 -16,7.1634 -16,16 0,8.8366 7.163444,16 16,16 8.836556,0 16,-7.1634 16,-16 0,-8.8366 -7.163444,-16 -16,-16 z m 0,6.5 c 5.246705,0 9.5,4.2533 9.5,9.5 0,5.2467 -4.253295,9.5 -9.5,9.5 -5.246705,0 -9.5,-4.2533 -9.5,-9.5 0,-5.2467 4.253295,-9.5 9.5,-9.5 z"/><rect style="fill:#fff;fill-opacity:1;stroke:none" id="rect3771" width="6" height="15" x="-718.677" y="752.618" ry="2.679" transform="matrix(0.70710678,-0.70710678,0.70710678,0.70710678,0,0)"/></g></g></svg>